<svg width="14" height="14" viewBox="0 0 14 14" fill="none" xmlns="http://www.w3.org/2000/svg">
<path fill-rule="evenodd" clip-rule="evenodd" d="M6.99622 12.1304C9.83132 12.1304 12.1296 9.83217 12.1296 6.99708C12.1296 4.16201 9.83132 1.86375 6.99622 1.86375C4.16116 1.86375 1.86289 4.16201 1.86289 6.99708C1.86289 9.83217 4.16116 12.1304 6.99622 12.1304ZM6.99622 13.5304C10.6045 13.5304 13.5296 10.6053 13.5296 6.99708C13.5296 3.38882 10.6045 0.463745 6.99622 0.463745C3.38797 0.463745 0.462891 3.38882 0.462891 6.99708C0.462891 10.6053 3.38797 13.5304 6.99622 13.5304Z" fill="#F2C94C"/>
<path d="M10.3296 6.99708C10.3296 8.83803 8.8372 10.3304 6.99625 10.3304L6.99602 3.66375C8.83697 3.66375 10.3296 5.15613 10.3296 6.99708Z" fill="#F2C94C"/>
</svg>
