<svg width="14" height="14" viewBox="0 0 14 14" fill="none" xmlns="http://www.w3.org/2000/svg">
<path d="M13.0732 7.79998L11.3379 7.57362C11.3623 7.38666 11.375 7.19525 11.375 7C11.375 6.80475 11.3623 6.61334 11.3379 6.42638L13.0732 6.20001C13.1074 6.46184 13.125 6.72886 13.125 7C13.125 7.27114 13.1074 7.53816 13.0732 7.79998ZM12.6602 4.65543C12.4537 4.15748 12.1834 3.69267 11.8596 3.2712L10.472 4.33752C10.7037 4.63912 10.8966 4.97104 11.0437 5.32577L12.6602 4.65543ZM10.7288 2.14043L9.66245 3.52804C9.36088 3.29627 9.02896 3.10339 8.67423 2.95629L9.34457 1.33977C9.84253 1.54626 10.3073 1.81654 10.7288 2.14043ZM7.79998 0.92677L7.57362 2.66207C7.38666 2.63768 7.19525 2.625 7 2.625C6.80475 2.625 6.61334 2.63768 6.42638 2.66207L6.20002 0.92677C6.46184 0.892618 6.72886 0.875 7 0.875C7.27114 0.875 7.53816 0.892618 7.79998 0.92677ZM4.65543 1.33977L5.32577 2.95629C4.97104 3.10339 4.63912 3.29627 4.33752 3.52804L3.2712 2.14043C3.69267 1.81654 4.15748 1.54626 4.65543 1.33977ZM2.14043 3.2712L3.52804 4.33752C3.29627 4.63912 3.10339 4.97104 2.95629 5.32577L1.33977 4.65543C1.54626 4.15748 1.81654 3.69267 2.14043 3.2712ZM0.92677 6.20002C0.892618 6.46184 0.875 6.72886 0.875 7C0.875 7.27114 0.892618 7.53816 0.92677 7.79998L2.66207 7.57362C2.63768 7.38666 2.625 7.19525 2.625 7C2.625 6.80475 2.63768 6.61334 2.66207 6.42638L0.92677 6.20002ZM1.33977 9.34457L2.95629 8.67423C3.10339 9.02896 3.29627 9.36088 3.52804 9.66245L2.14043 10.7288C1.81654 10.3073 1.54626 9.84253 1.33977 9.34457ZM3.2712 11.8596L4.33752 10.472C4.63912 10.7037 4.97104 10.8966 5.32577 11.0437L4.65543 12.6602C4.15748 12.4537 3.69267 12.1834 3.2712 11.8596ZM6.20002 13.0732L6.42638 11.3379C6.61334 11.3623 6.80475 11.375 7 11.375C7.19525 11.375 7.38666 11.3623 7.57362 11.3379L7.79999 13.0732C7.53816 13.1074 7.27114 13.125 7 13.125C6.72886 13.125 6.46184 13.1074 6.20002 13.0732ZM9.34457 12.6602L8.67423 11.0437C9.02896 10.8966 9.36088 10.7037 9.66245 10.472L10.7288 11.8596C10.3073 12.1834 9.84253 12.4537 9.34457 12.6602ZM11.8596 10.7288L10.472 9.66245C10.7037 9.36088 10.8966 9.02896 11.0437 8.67423L12.6602 9.34457C12.4537 9.84253 12.1835 10.3073 11.8596 10.7288Z" fill="#EEEFFC"/>
</svg>
